# xmcd
#
# Track frame offsets: 
#        150
#        13652
#        28181
#        39124
#        50651
#        64575
#        76496
#        86550
#        96293
#        109852
#        121575
#        129904
#
# Disc length: 1898 seconds
#
# Revision: 0
# Processed by: cddbd v1.5.2PL0 Copyright (c) Steve Scherf et al.
# Submitted via: ExactAudioCopy v0.95b4
#
DISCID=8f07680c
DTITLE=Time Carroll - Free Again
DYEAR=1999
DGENRE=Country
TTITLE0=Does This Mean We're Through
TTITLE1=Uncle John
TTITLE2=Better Dream
TTITLE3=Man On The Run
TTITLE4=Broke My Own Heart
TTITLE5=Not Gettin' High
TTITLE6=I'd Rather Give Out
TTITLE7=I Don't Have Time
TTITLE8=You And I
TTITLE9=Overnight Success
TTITLE10=Burn It
TTITLE11=The Honky Tonks Called Her Away
EXTD=
EXTT0=
EXTT1=
EXTT2=
EXTT3=
EXTT4=
EXTT5=
EXTT6=
EXTT7=
EXTT8=
EXTT9=
EXTT10=
EXTT11=
PLAYORDER=
